<mxfile modified="2023-09-03T11:26:29.016Z" host="app.diagrams.net" agent="Mozilla/5.0 (Macintosh; Intel Mac OS X 10_15_7) AppleWebKit/537.36 (KHTML, like Gecko) Chrome/116.0.0.0 Safari/537.36" etag="UjWRdy14efEWc35-KzFJ" version="21.6.6" type="device">
  <diagram id="Ht1M8jgEwFfnCIfOTk4-" name="Page-1">
    <mxGraphModel dx="1686" dy="1338" grid="1" gridSize="10" guides="1" tooltips="1" connect="1" arrows="1" fold="1" page="1" pageScale="1" pageWidth="1169" pageHeight="827" math="0" shadow="0">
      <root>
        <mxCell id="0" />
        <mxCell id="1" parent="0" />
        <mxCell id="YZbvF_p_eENknfA_JEwz-19" style="edgeStyle=orthogonalEdgeStyle;rounded=0;orthogonalLoop=1;jettySize=auto;html=1;startArrow=none;startFill=0;endArrow=open;endFill=0;strokeColor=#808080;strokeWidth=2;" edge="1" parent="1" source="FNS3CWl-D_mc5Ym-_BPV-48" target="FNS3CWl-D_mc5Ym-_BPV-35">
          <mxGeometry relative="1" as="geometry">
            <mxPoint x="840" y="295.5" as="sourcePoint" />
            <mxPoint x="480" y="620" as="targetPoint" />
            <Array as="points">
              <mxPoint x="450" y="480" />
              <mxPoint x="520" y="480" />
              <mxPoint x="520" y="700" />
            </Array>
          </mxGeometry>
        </mxCell>
        <mxCell id="FNS3CWl-D_mc5Ym-_BPV-34" value="Private subnet" style="points=[[0,0],[0.25,0],[0.5,0],[0.75,0],[1,0],[1,0.25],[1,0.5],[1,0.75],[1,1],[0.75,1],[0.5,1],[0.25,1],[0,1],[0,0.75],[0,0.5],[0,0.25]];outlineConnect=0;gradientColor=none;html=1;whiteSpace=wrap;fontSize=12;fontStyle=0;container=1;pointerEvents=0;collapsible=0;recursiveResize=0;shape=mxgraph.aws4.group;grIcon=mxgraph.aws4.group_security_group;grStroke=0;strokeColor=#147EBA;fillColor=#E6F2F8;verticalAlign=top;align=left;spacingLeft=30;fontColor=#147EBA;dashed=0;" parent="1" vertex="1">
          <mxGeometry x="139" y="648" width="270" height="113" as="geometry" />
        </mxCell>
        <mxCell id="FNS3CWl-D_mc5Ym-_BPV-33" value="Public subnet" style="points=[[0,0],[0.25,0],[0.5,0],[0.75,0],[1,0],[1,0.25],[1,0.5],[1,0.75],[1,1],[0.75,1],[0.5,1],[0.25,1],[0,1],[0,0.75],[0,0.5],[0,0.25]];outlineConnect=0;gradientColor=none;html=1;whiteSpace=wrap;fontSize=12;fontStyle=0;container=1;pointerEvents=0;collapsible=0;recursiveResize=0;shape=mxgraph.aws4.group;grIcon=mxgraph.aws4.group_security_group;grStroke=0;strokeColor=#248814;fillColor=#E9F3E6;verticalAlign=top;align=left;spacingLeft=30;fontColor=#248814;dashed=0;" parent="1" vertex="1">
          <mxGeometry x="139" y="373" width="270" height="170" as="geometry" />
        </mxCell>
        <mxCell id="UEzPUAAOIrF-is8g5C7q-205" value="AWS Cloud" style="points=[[0,0],[0.25,0],[0.5,0],[0.75,0],[1,0],[1,0.25],[1,0.5],[1,0.75],[1,1],[0.75,1],[0.5,1],[0.25,1],[0,1],[0,0.75],[0,0.5],[0,0.25]];outlineConnect=0;gradientColor=none;html=1;whiteSpace=wrap;fontSize=12;fontStyle=0;shape=mxgraph.aws4.group;grIcon=mxgraph.aws4.group_aws_cloud_alt;strokeColor=#232F3E;fillColor=none;verticalAlign=top;align=left;spacingLeft=30;fontColor=#232F3E;dashed=0;labelBackgroundColor=#ffffff;container=1;pointerEvents=0;collapsible=0;recursiveResize=0;" parent="1" vertex="1">
          <mxGeometry x="23.5" width="1026.5" height="820" as="geometry" />
        </mxCell>
        <mxCell id="FNS3CWl-D_mc5Ym-_BPV-11" value="Region" style="points=[[0,0],[0.25,0],[0.5,0],[0.75,0],[1,0],[1,0.25],[1,0.5],[1,0.75],[1,1],[0.75,1],[0.5,1],[0.25,1],[0,1],[0,0.75],[0,0.5],[0,0.25]];outlineConnect=0;gradientColor=none;html=1;whiteSpace=wrap;fontSize=12;fontStyle=0;container=1;pointerEvents=0;collapsible=0;recursiveResize=0;shape=mxgraph.aws4.group;grIcon=mxgraph.aws4.group_region;strokeColor=#147EBA;fillColor=none;verticalAlign=top;align=left;spacingLeft=30;fontColor=#147EBA;dashed=1;" parent="UEzPUAAOIrF-is8g5C7q-205" vertex="1">
          <mxGeometry x="15.5" y="120" width="874.5" height="680" as="geometry" />
        </mxCell>
        <mxCell id="FNS3CWl-D_mc5Ym-_BPV-21" value="Availability zone" style="sketch=0;outlineConnect=0;gradientColor=none;html=1;whiteSpace=wrap;fontSize=12;fontStyle=0;shape=mxgraph.aws4.group;grIcon=mxgraph.aws4.group_availability_zone;strokeColor=#545B64;fillColor=none;verticalAlign=top;align=left;spacingLeft=30;fontColor=#545B64;dashed=1;" parent="FNS3CWl-D_mc5Ym-_BPV-11" vertex="1">
          <mxGeometry x="93" y="140" width="287" height="530" as="geometry" />
        </mxCell>
        <mxCell id="FNS3CWl-D_mc5Ym-_BPV-12" value="VPC" style="points=[[0,0],[0.25,0],[0.5,0],[0.75,0],[1,0],[1,0.25],[1,0.5],[1,0.75],[1,1],[0.75,1],[0.5,1],[0.25,1],[0,1],[0,0.75],[0,0.5],[0,0.25]];outlineConnect=0;gradientColor=none;html=1;whiteSpace=wrap;fontSize=12;fontStyle=0;container=1;pointerEvents=0;collapsible=0;recursiveResize=0;shape=mxgraph.aws4.group;grIcon=mxgraph.aws4.group_vpc;strokeColor=#248814;fillColor=none;verticalAlign=top;align=left;spacingLeft=30;fontColor=#AAB7B8;dashed=0;" parent="FNS3CWl-D_mc5Ym-_BPV-11" vertex="1">
          <mxGeometry x="20" y="180" width="830" height="470" as="geometry" />
        </mxCell>
        <mxCell id="FNS3CWl-D_mc5Ym-_BPV-42" value="AWS Fargate" style="sketch=0;outlineConnect=0;fontColor=#232F3E;gradientColor=none;strokeColor=#ffffff;fillColor=#232F3E;dashed=0;verticalLabelPosition=middle;verticalAlign=bottom;align=center;html=1;whiteSpace=wrap;fontSize=10;fontStyle=1;spacing=3;shape=mxgraph.aws4.productIcon;prIcon=mxgraph.aws4.fargate;" parent="FNS3CWl-D_mc5Ym-_BPV-12" vertex="1">
          <mxGeometry x="436" y="32.5" width="80" height="100" as="geometry" />
        </mxCell>
        <mxCell id="FNS3CWl-D_mc5Ym-_BPV-48" value="" style="sketch=0;outlineConnect=0;fontColor=#232F3E;gradientColor=none;fillColor=#D45B07;strokeColor=none;dashed=0;verticalLabelPosition=bottom;verticalAlign=top;align=center;html=1;fontSize=12;fontStyle=0;aspect=fixed;pointerEvents=1;shape=mxgraph.aws4.ecs_service;" parent="FNS3CWl-D_mc5Ym-_BPV-12" vertex="1">
          <mxGeometry x="356" y="51.5" width="39" height="48" as="geometry" />
        </mxCell>
        <mxCell id="FNS3CWl-D_mc5Ym-_BPV-38" value="Amazon EC2" style="sketch=0;outlineConnect=0;fontColor=#232F3E;gradientColor=none;strokeColor=#ffffff;fillColor=#232F3E;dashed=0;verticalLabelPosition=middle;verticalAlign=bottom;align=center;html=1;whiteSpace=wrap;fontSize=10;fontStyle=1;spacing=3;shape=mxgraph.aws4.productIcon;prIcon=mxgraph.aws4.ec2;" parent="FNS3CWl-D_mc5Ym-_BPV-12" vertex="1">
          <mxGeometry x="90" y="139.5" width="80" height="100" as="geometry" />
        </mxCell>
        <mxCell id="YZbvF_p_eENknfA_JEwz-31" style="edgeStyle=orthogonalEdgeStyle;rounded=0;orthogonalLoop=1;jettySize=auto;html=1;startArrow=none;startFill=0;endArrow=open;endFill=0;strokeColor=#808080;strokeWidth=2;" edge="1" parent="FNS3CWl-D_mc5Ym-_BPV-12" target="FNS3CWl-D_mc5Ym-_BPV-48">
          <mxGeometry relative="1" as="geometry">
            <mxPoint x="371.9756097560977" y="208.5" as="sourcePoint" />
            <mxPoint x="372.4634146341465" y="129.5" as="targetPoint" />
            <Array as="points">
              <mxPoint x="373" y="209" />
            </Array>
          </mxGeometry>
        </mxCell>
        <mxCell id="FNS3CWl-D_mc5Ym-_BPV-22" value="Application Load Balancer" style="sketch=0;outlineConnect=0;fontColor=#232F3E;gradientColor=none;strokeColor=#ffffff;fillColor=#232F3E;dashed=0;verticalLabelPosition=middle;verticalAlign=bottom;align=center;html=1;whiteSpace=wrap;fontSize=10;fontStyle=1;spacing=3;shape=mxgraph.aws4.productIcon;prIcon=mxgraph.aws4.application_load_balancer;" parent="FNS3CWl-D_mc5Ym-_BPV-12" vertex="1">
          <mxGeometry x="340" y="208.5" width="80" height="110" as="geometry" />
        </mxCell>
        <mxCell id="FNS3CWl-D_mc5Ym-_BPV-23" value="Amazon ECR" style="sketch=0;outlineConnect=0;fontColor=#232F3E;gradientColor=none;strokeColor=#ffffff;fillColor=#232F3E;dashed=0;verticalLabelPosition=middle;verticalAlign=bottom;align=center;html=1;whiteSpace=wrap;fontSize=10;fontStyle=1;spacing=3;shape=mxgraph.aws4.productIcon;prIcon=mxgraph.aws4.ecr;" parent="FNS3CWl-D_mc5Ym-_BPV-11" vertex="1">
          <mxGeometry x="452.25" y="16.5" width="80" height="100" as="geometry" />
        </mxCell>
        <mxCell id="FNS3CWl-D_mc5Ym-_BPV-25" value="AWS CodeBuild" style="sketch=0;outlineConnect=0;fontColor=#232F3E;gradientColor=none;strokeColor=#ffffff;fillColor=#232F3E;dashed=0;verticalLabelPosition=middle;verticalAlign=bottom;align=center;html=1;whiteSpace=wrap;fontSize=10;fontStyle=1;spacing=3;shape=mxgraph.aws4.productIcon;prIcon=mxgraph.aws4.codebuild;" parent="FNS3CWl-D_mc5Ym-_BPV-11" vertex="1">
          <mxGeometry x="285" y="15.5" width="80" height="110" as="geometry" />
        </mxCell>
        <mxCell id="FNS3CWl-D_mc5Ym-_BPV-26" value="AWS CodePipeline" style="sketch=0;outlineConnect=0;fontColor=#232F3E;gradientColor=none;strokeColor=#ffffff;fillColor=#232F3E;dashed=0;verticalLabelPosition=middle;verticalAlign=bottom;align=center;html=1;whiteSpace=wrap;fontSize=10;fontStyle=1;spacing=3;shape=mxgraph.aws4.productIcon;prIcon=mxgraph.aws4.codepipeline;" parent="FNS3CWl-D_mc5Ym-_BPV-11" vertex="1">
          <mxGeometry x="120" y="15.5" width="80" height="110" as="geometry" />
        </mxCell>
        <mxCell id="FNS3CWl-D_mc5Ym-_BPV-61" value="" style="sketch=0;outlineConnect=0;fontColor=#232F3E;gradientColor=none;fillColor=#D45B07;strokeColor=none;dashed=0;verticalLabelPosition=bottom;verticalAlign=top;align=center;html=1;fontSize=12;fontStyle=0;aspect=fixed;pointerEvents=1;shape=mxgraph.aws4.container_1;" parent="FNS3CWl-D_mc5Ym-_BPV-11" vertex="1">
          <mxGeometry x="236" y="364.5" width="48" height="31" as="geometry" />
        </mxCell>
        <mxCell id="FNS3CWl-D_mc5Ym-_BPV-63" value="&lt;div style=&quot;&quot;&gt;&lt;font color=&quot;#232f3e&quot;&gt;&lt;span style=&quot;background-color: rgb(255, 255, 255);&quot;&gt;ParameterStore&lt;/span&gt;&lt;/font&gt;&lt;/div&gt;" style="text;whiteSpace=wrap;html=1;align=center;" parent="FNS3CWl-D_mc5Ym-_BPV-11" vertex="1">
          <mxGeometry x="650" y="103" width="105" height="32.5" as="geometry" />
        </mxCell>
        <mxCell id="FNS3CWl-D_mc5Ym-_BPV-64" value="AWS Certificate Manager" style="sketch=0;outlineConnect=0;fontColor=#232F3E;gradientColor=none;strokeColor=#ffffff;fillColor=#232F3E;dashed=0;verticalLabelPosition=middle;verticalAlign=bottom;align=center;html=1;whiteSpace=wrap;fontSize=10;fontStyle=1;spacing=3;shape=mxgraph.aws4.productIcon;prIcon=mxgraph.aws4.certificate_manager_3;" parent="FNS3CWl-D_mc5Ym-_BPV-11" vertex="1">
          <mxGeometry x="770" y="25.5" width="80" height="110" as="geometry" />
        </mxCell>
        <mxCell id="FNS3CWl-D_mc5Ym-_BPV-31" value="" style="edgeStyle=orthogonalEdgeStyle;rounded=0;orthogonalLoop=1;jettySize=auto;html=1;startArrow=none;startFill=0;endArrow=open;endFill=0;strokeColor=#808080;strokeWidth=2;" parent="FNS3CWl-D_mc5Ym-_BPV-11" edge="1">
          <mxGeometry relative="1" as="geometry">
            <mxPoint x="199.9999999999999" y="59.5" as="sourcePoint" />
            <mxPoint x="285" y="59.5" as="targetPoint" />
          </mxGeometry>
        </mxCell>
        <mxCell id="FNS3CWl-D_mc5Ym-_BPV-32" value="" style="edgeStyle=orthogonalEdgeStyle;rounded=0;orthogonalLoop=1;jettySize=auto;html=1;startArrow=none;startFill=0;endArrow=open;endFill=0;strokeColor=#808080;strokeWidth=2;" parent="FNS3CWl-D_mc5Ym-_BPV-11" edge="1">
          <mxGeometry relative="1" as="geometry">
            <mxPoint x="365" y="60.50877192982455" as="sourcePoint" />
            <mxPoint x="452.25" y="60.50877192982455" as="targetPoint" />
            <Array as="points">
              <mxPoint x="431" y="60" />
              <mxPoint x="431" y="60" />
            </Array>
          </mxGeometry>
        </mxCell>
        <mxCell id="YZbvF_p_eENknfA_JEwz-18" style="edgeStyle=orthogonalEdgeStyle;rounded=0;orthogonalLoop=1;jettySize=auto;html=1;startArrow=none;startFill=0;endArrow=open;endFill=0;strokeColor=#808080;strokeWidth=2;" edge="1" parent="FNS3CWl-D_mc5Ym-_BPV-11" source="FNS3CWl-D_mc5Ym-_BPV-64" target="FNS3CWl-D_mc5Ym-_BPV-22">
          <mxGeometry relative="1" as="geometry">
            <mxPoint x="791" y="165.5" as="sourcePoint" />
            <mxPoint x="431" y="490" as="targetPoint" />
            <Array as="points">
              <mxPoint x="811" y="330" />
              <mxPoint x="431" y="330" />
            </Array>
          </mxGeometry>
        </mxCell>
        <mxCell id="YZbvF_p_eENknfA_JEwz-27" value="" style="edgeStyle=orthogonalEdgeStyle;rounded=0;orthogonalLoop=1;jettySize=auto;html=1;startArrow=none;startFill=0;endArrow=open;endFill=0;strokeColor=#808080;strokeWidth=2;" edge="1" parent="FNS3CWl-D_mc5Ym-_BPV-11" source="FNS3CWl-D_mc5Ym-_BPV-42" target="FNS3CWl-D_mc5Ym-_BPV-23">
          <mxGeometry relative="1" as="geometry">
            <mxPoint x="393.63" y="135.49877192982456" as="sourcePoint" />
            <mxPoint x="480.88" y="135.49877192982456" as="targetPoint" />
            <Array as="points">
              <mxPoint x="491" y="160" />
              <mxPoint x="491" y="160" />
            </Array>
          </mxGeometry>
        </mxCell>
        <mxCell id="FNS3CWl-D_mc5Ym-_BPV-28" value="Amazon Route 53" style="sketch=0;outlineConnect=0;fontColor=#232F3E;gradientColor=none;strokeColor=#ffffff;fillColor=#232F3E;dashed=0;verticalLabelPosition=middle;verticalAlign=bottom;align=center;html=1;whiteSpace=wrap;fontSize=10;fontStyle=1;spacing=3;shape=mxgraph.aws4.productIcon;prIcon=mxgraph.aws4.route_53;" parent="UEzPUAAOIrF-is8g5C7q-205" vertex="1">
          <mxGeometry x="905.5" y="452.5" width="80" height="110" as="geometry" />
        </mxCell>
        <mxCell id="YZbvF_p_eENknfA_JEwz-4" value="AWS CodeStar" style="sketch=0;outlineConnect=0;fontColor=#232F3E;gradientColor=none;strokeColor=#ffffff;fillColor=#232F3E;dashed=0;verticalLabelPosition=middle;verticalAlign=bottom;align=center;html=1;whiteSpace=wrap;fontSize=10;fontStyle=1;spacing=3;shape=mxgraph.aws4.productIcon;prIcon=mxgraph.aws4.codestar;" vertex="1" parent="UEzPUAAOIrF-is8g5C7q-205">
          <mxGeometry x="136.5" y="10" width="80" height="100" as="geometry" />
        </mxCell>
        <mxCell id="YZbvF_p_eENknfA_JEwz-2" value="" style="edgeStyle=orthogonalEdgeStyle;rounded=0;orthogonalLoop=1;jettySize=auto;html=1;startArrow=none;startFill=0;endArrow=open;endFill=0;strokeColor=#808080;strokeWidth=2;" edge="1" parent="UEzPUAAOIrF-is8g5C7q-205" source="YZbvF_p_eENknfA_JEwz-4" target="FNS3CWl-D_mc5Ym-_BPV-26">
          <mxGeometry relative="1" as="geometry">
            <mxPoint x="175.5" y="-44" as="sourcePoint" />
            <mxPoint x="174.5" y="-10" as="targetPoint" />
            <Array as="points">
              <mxPoint x="177" y="153" />
              <mxPoint x="177" y="153" />
            </Array>
          </mxGeometry>
        </mxCell>
        <mxCell id="YZbvF_p_eENknfA_JEwz-22" style="edgeStyle=orthogonalEdgeStyle;rounded=0;orthogonalLoop=1;jettySize=auto;html=1;startArrow=none;startFill=0;endArrow=open;endFill=0;strokeColor=#808080;strokeWidth=2;" edge="1" parent="UEzPUAAOIrF-is8g5C7q-205" source="FNS3CWl-D_mc5Ym-_BPV-28" target="FNS3CWl-D_mc5Ym-_BPV-22">
          <mxGeometry relative="1" as="geometry">
            <mxPoint x="945.5000000000002" y="579.5" as="sourcePoint" />
            <mxPoint x="455.5" y="581" as="targetPoint" />
            <Array as="points">
              <mxPoint x="676" y="500" />
              <mxPoint x="676" y="560" />
            </Array>
          </mxGeometry>
        </mxCell>
        <mxCell id="FNS3CWl-D_mc5Ym-_BPV-35" value="Amazon RDS" style="sketch=0;outlineConnect=0;fontColor=#232F3E;gradientColor=none;strokeColor=#ffffff;fillColor=#232F3E;dashed=0;verticalLabelPosition=middle;verticalAlign=bottom;align=center;html=1;whiteSpace=wrap;fontSize=10;fontStyle=1;spacing=3;shape=mxgraph.aws4.productIcon;prIcon=mxgraph.aws4.rds;" parent="1" vertex="1">
          <mxGeometry x="399" y="659" width="80" height="100" as="geometry" />
        </mxCell>
        <mxCell id="FNS3CWl-D_mc5Ym-_BPV-37" value="" style="sketch=0;outlineConnect=0;fontColor=#232F3E;gradientColor=none;fillColor=#D45B07;strokeColor=none;dashed=0;verticalLabelPosition=bottom;verticalAlign=top;align=center;html=1;fontSize=12;fontStyle=0;aspect=fixed;pointerEvents=1;shape=mxgraph.aws4.ecs_task;" parent="1" vertex="1">
          <mxGeometry x="279" y="413.5" width="37" height="48" as="geometry" />
        </mxCell>
        <mxCell id="FNS3CWl-D_mc5Ym-_BPV-39" value="Amazon ECS" style="sketch=0;outlineConnect=0;fontColor=#232F3E;gradientColor=none;strokeColor=#ffffff;fillColor=#232F3E;dashed=0;verticalLabelPosition=middle;verticalAlign=bottom;align=center;html=1;whiteSpace=wrap;fontSize=10;fontStyle=1;spacing=3;shape=mxgraph.aws4.productIcon;prIcon=mxgraph.aws4.ecs;" parent="1" vertex="1">
          <mxGeometry x="592" y="333" width="80" height="100" as="geometry" />
        </mxCell>
        <mxCell id="FNS3CWl-D_mc5Ym-_BPV-62" value="" style="sketch=0;outlineConnect=0;fontColor=#232F3E;gradientColor=none;fillColor=#B0084D;strokeColor=none;dashed=0;verticalLabelPosition=bottom;verticalAlign=top;align=center;html=1;fontSize=12;fontStyle=0;aspect=fixed;pointerEvents=1;shape=mxgraph.aws4.parameter_store;" parent="1" vertex="1">
          <mxGeometry x="704" y="143" width="75" height="78" as="geometry" />
        </mxCell>
        <mxCell id="FNS3CWl-D_mc5Ym-_BPV-66" value="&lt;div style=&quot;&quot;&gt;&lt;font color=&quot;#232f3e&quot;&gt;&lt;span style=&quot;background-color: rgb(255, 255, 255);&quot;&gt;ECS Service&lt;/span&gt;&lt;/font&gt;&lt;/div&gt;" style="text;whiteSpace=wrap;html=1;align=center;" parent="1" vertex="1">
          <mxGeometry x="378" y="409.5" width="105" height="19.5" as="geometry" />
        </mxCell>
        <mxCell id="FNS3CWl-D_mc5Ym-_BPV-69" value="&lt;div style=&quot;&quot;&gt;&lt;font color=&quot;#232f3e&quot;&gt;&lt;span style=&quot;background-color: rgb(255, 255, 255);&quot;&gt;ECS Task&lt;/span&gt;&lt;/font&gt;&lt;/div&gt;" style="text;whiteSpace=wrap;html=1;align=center;" parent="1" vertex="1">
          <mxGeometry x="249" y="459.5" width="105" height="32.5" as="geometry" />
        </mxCell>
        <mxCell id="YZbvF_p_eENknfA_JEwz-8" value="" style="dashed=0;outlineConnect=0;html=1;align=center;labelPosition=center;verticalLabelPosition=bottom;verticalAlign=top;shape=mxgraph.weblogos.github" vertex="1" parent="1">
          <mxGeometry x="1071" y="2" width="75" height="75" as="geometry" />
        </mxCell>
        <mxCell id="YZbvF_p_eENknfA_JEwz-9" value="&lt;div style=&quot;&quot;&gt;&lt;font color=&quot;#232f3e&quot;&gt;&lt;span style=&quot;background-color: rgb(255, 255, 255);&quot;&gt;github&lt;/span&gt;&lt;/font&gt;&lt;/div&gt;" style="text;whiteSpace=wrap;html=1;align=center;" vertex="1" parent="1">
          <mxGeometry x="1063.5" y="77.5" width="90" height="32.5" as="geometry" />
        </mxCell>
        <mxCell id="YZbvF_p_eENknfA_JEwz-10" value="" style="sketch=0;points=[[0,0,0],[0.25,0,0],[0.5,0,0],[0.75,0,0],[1,0,0],[0,1,0],[0.25,1,0],[0.5,1,0],[0.75,1,0],[1,1,0],[0,0.25,0],[0,0.5,0],[0,0.75,0],[1,0.25,0],[1,0.5,0],[1,0.75,0]];points=[[0,0,0],[0.25,0,0],[0.5,0,0],[0.75,0,0],[1,0,0],[0,1,0],[0.25,1,0],[0.5,1,0],[0.75,1,0],[1,1,0],[0,0.25,0],[0,0.5,0],[0,0.75,0],[1,0.25,0],[1,0.5,0],[1,0.75,0]];outlineConnect=0;fontColor=#232F3E;gradientColor=#F34482;gradientDirection=north;fillColor=#BC1356;strokeColor=#ffffff;dashed=0;verticalLabelPosition=bottom;verticalAlign=top;align=center;html=1;fontSize=12;fontStyle=0;aspect=fixed;shape=mxgraph.aws4.resourceIcon;resIcon=mxgraph.aws4.cloudformation;" vertex="1" parent="1">
          <mxGeometry x="1071" y="150" width="78" height="78" as="geometry" />
        </mxCell>
        <mxCell id="YZbvF_p_eENknfA_JEwz-11" value="&lt;div style=&quot;&quot;&gt;&lt;font color=&quot;#232f3e&quot;&gt;&lt;span style=&quot;background-color: rgb(255, 255, 255);&quot;&gt;Terraform&lt;/span&gt;&lt;/font&gt;&lt;/div&gt;" style="text;whiteSpace=wrap;html=1;align=center;" vertex="1" parent="1">
          <mxGeometry x="1076" y="229.5" width="64" height="32.5" as="geometry" />
        </mxCell>
        <mxCell id="YZbvF_p_eENknfA_JEwz-12" style="edgeStyle=orthogonalEdgeStyle;rounded=0;orthogonalLoop=1;jettySize=auto;html=1;startArrow=none;startFill=0;endArrow=open;endFill=0;strokeColor=#808080;strokeWidth=2;exitX=0;exitY=0.5;exitDx=0;exitDy=0;exitPerimeter=0;" edge="1" parent="1" source="YZbvF_p_eENknfA_JEwz-10" target="UEzPUAAOIrF-is8g5C7q-205">
          <mxGeometry relative="1" as="geometry">
            <mxPoint x="1130" y="288" as="sourcePoint" />
            <mxPoint x="1080" y="340" as="targetPoint" />
            <Array as="points">
              <mxPoint x="1050" y="189" />
              <mxPoint x="1050" y="320" />
            </Array>
          </mxGeometry>
        </mxCell>
        <mxCell id="YZbvF_p_eENknfA_JEwz-13" value="" style="edgeStyle=orthogonalEdgeStyle;rounded=0;orthogonalLoop=1;jettySize=auto;html=1;startArrow=none;startFill=0;endArrow=open;endFill=0;strokeColor=#808080;strokeWidth=2;" edge="1" parent="1" source="YZbvF_p_eENknfA_JEwz-8" target="YZbvF_p_eENknfA_JEwz-4">
          <mxGeometry relative="1" as="geometry">
            <mxPoint x="1019" y="-74" as="sourcePoint" />
            <mxPoint x="1019" y="166" as="targetPoint" />
            <Array as="points">
              <mxPoint x="450" y="40" />
              <mxPoint x="450" y="40" />
            </Array>
          </mxGeometry>
        </mxCell>
        <mxCell id="YZbvF_p_eENknfA_JEwz-14" value="" style="verticalLabelPosition=bottom;html=1;verticalAlign=top;align=center;strokeColor=none;fillColor=#00BEF2;shape=mxgraph.azure.user;" vertex="1" parent="1">
          <mxGeometry x="1090" y="471" width="47.5" height="50" as="geometry" />
        </mxCell>
        <mxCell id="YZbvF_p_eENknfA_JEwz-15" value="&lt;div style=&quot;&quot;&gt;&lt;font color=&quot;#232f3e&quot;&gt;&lt;span style=&quot;background-color: rgb(255, 255, 255);&quot;&gt;User&lt;/span&gt;&lt;/font&gt;&lt;/div&gt;" style="text;whiteSpace=wrap;html=1;align=center;" vertex="1" parent="1">
          <mxGeometry x="1084" y="526.5" width="64" height="32.5" as="geometry" />
        </mxCell>
        <mxCell id="YZbvF_p_eENknfA_JEwz-23" style="edgeStyle=orthogonalEdgeStyle;rounded=0;orthogonalLoop=1;jettySize=auto;html=1;startArrow=none;startFill=0;endArrow=open;endFill=0;strokeColor=#808080;strokeWidth=2;exitX=0.227;exitY=0.505;exitDx=0;exitDy=0;exitPerimeter=0;" edge="1" parent="1">
          <mxGeometry relative="1" as="geometry">
            <mxPoint x="1100.7824999999998" y="499.2499999999999" as="sourcePoint" />
            <mxPoint x="1009.0000000000002" y="499.2142857142859" as="targetPoint" />
            <Array as="points">
              <mxPoint x="1060" y="499" />
              <mxPoint x="1060" y="499" />
            </Array>
          </mxGeometry>
        </mxCell>
        <mxCell id="YZbvF_p_eENknfA_JEwz-26" style="edgeStyle=orthogonalEdgeStyle;rounded=0;orthogonalLoop=1;jettySize=auto;html=1;startArrow=none;startFill=0;endArrow=open;endFill=0;strokeColor=#808080;strokeWidth=2;" edge="1" parent="1" source="FNS3CWl-D_mc5Ym-_BPV-48" target="FNS3CWl-D_mc5Ym-_BPV-37">
          <mxGeometry relative="1" as="geometry">
            <mxPoint x="300" y="341" as="sourcePoint" />
            <mxPoint x="325" y="655" as="targetPoint" />
            <Array as="points">
              <mxPoint x="370" y="390" />
              <mxPoint x="370" y="430" />
            </Array>
          </mxGeometry>
        </mxCell>
        <mxCell id="YZbvF_p_eENknfA_JEwz-29" style="edgeStyle=orthogonalEdgeStyle;rounded=0;orthogonalLoop=1;jettySize=auto;html=1;startArrow=none;startFill=0;endArrow=open;endFill=0;strokeColor=#808080;strokeWidth=2;" edge="1" parent="1" target="FNS3CWl-D_mc5Ym-_BPV-35">
          <mxGeometry relative="1" as="geometry">
            <mxPoint x="189.0588235294117" y="539.5000000000002" as="sourcePoint" />
            <mxPoint x="439" y="652" as="targetPoint" />
            <Array as="points">
              <mxPoint x="189" y="630" />
              <mxPoint x="439" y="630" />
            </Array>
          </mxGeometry>
        </mxCell>
      </root>
    </mxGraphModel>
  </diagram>
</mxfile>
